<mxfile host="Electron" agent="Mozilla/5.0 (X11; Linux x86_64) AppleWebKit/537.36 (KHTML, like Gecko) draw.io/24.7.17 Chrome/128.0.6613.36 Electron/32.0.1 Safari/537.36" version="24.7.17">
  <diagram name="Page-1" id="03018318-947c-dd8e-b7a3-06fadd420f32">
    <mxGraphModel dx="2074" dy="1198" grid="1" gridSize="10" guides="1" tooltips="1" connect="1" arrows="1" fold="1" page="0" pageScale="1" pageWidth="1100" pageHeight="850" background="none" math="0" shadow="0">
      <root>
        <mxCell id="0" />
        <mxCell id="1" parent="0" />
        <mxCell id="a_xUBQwBy6rDpvlgd22E-41" value="" style="group" vertex="1" connectable="0" parent="1">
          <mxGeometry y="120" width="640" height="440" as="geometry" />
        </mxCell>
        <mxCell id="a_xUBQwBy6rDpvlgd22E-2" value="" style="rounded=0;whiteSpace=wrap;html=1;" vertex="1" parent="a_xUBQwBy6rDpvlgd22E-41">
          <mxGeometry width="640" height="440" as="geometry" />
        </mxCell>
        <mxCell id="a_xUBQwBy6rDpvlgd22E-4" value="" style="rounded=0;whiteSpace=wrap;html=1;" vertex="1" parent="a_xUBQwBy6rDpvlgd22E-41">
          <mxGeometry width="640" height="40" as="geometry" />
        </mxCell>
        <mxCell id="a_xUBQwBy6rDpvlgd22E-5" value="Logout" style="rounded=1;whiteSpace=wrap;html=1;" vertex="1" parent="a_xUBQwBy6rDpvlgd22E-41">
          <mxGeometry x="568.8888888888889" y="10" width="60.95238095238095" height="20" as="geometry" />
        </mxCell>
        <mxCell id="a_xUBQwBy6rDpvlgd22E-6" value="Behold VTT" style="text;html=1;align=center;verticalAlign=middle;whiteSpace=wrap;rounded=0;fontStyle=1" vertex="1" parent="a_xUBQwBy6rDpvlgd22E-41">
          <mxGeometry x="10.158730158730158" y="5" width="81.26984126984127" height="30" as="geometry" />
        </mxCell>
        <mxCell id="a_xUBQwBy6rDpvlgd22E-7" value="User Name" style="text;html=1;align=center;verticalAlign=middle;whiteSpace=wrap;rounded=0;" vertex="1" parent="a_xUBQwBy6rDpvlgd22E-41">
          <mxGeometry x="477.4603174603174" y="5" width="81.26984126984127" height="30" as="geometry" />
        </mxCell>
        <mxCell id="a_xUBQwBy6rDpvlgd22E-39" value="Game Name" style="text;html=1;align=center;verticalAlign=middle;whiteSpace=wrap;rounded=0;" vertex="1" parent="a_xUBQwBy6rDpvlgd22E-41">
          <mxGeometry x="314.9206349206349" y="5" width="81.26984126984127" height="30" as="geometry" />
        </mxCell>
        <mxCell id="a_xUBQwBy6rDpvlgd22E-40" value="Leave" style="rounded=1;whiteSpace=wrap;html=1;" vertex="1" parent="a_xUBQwBy6rDpvlgd22E-41">
          <mxGeometry x="406.3492063492063" y="10" width="60.95238095238095" height="20" as="geometry" />
        </mxCell>
      </root>
    </mxGraphModel>
  </diagram>
</mxfile>
